<?xml version="1.0" encoding="utf-8"?>
<svg width="706" height="120" viewBox="0 0 706 120" xmlns="http://www.w3.org/2000/svg">
<rect id="frame" x="0" y="0" width="706" height="120" fill="#f7f7f7" stroke="none" stroke-width="0"/>

<!-- Association Client -->
<g>
	<path d="M125 60 C89.33 93.33 59 93.33 34 60" fill="none" stroke="#4393c3" stroke-width="2"/>
	<text x="65" y="74" fill="#b2182b" font-family="Verdana" font-size="12">0,1</text>
	<path d="M125 60 C88.67 26.67 58.33 26.67 34 60" fill="none" stroke="#4393c3" stroke-width="2"/>
	<text x="64" y="55" fill="#b2182b" font-family="Verdana" font-size="12">0,N</text>
	<g>
		<path d="M45 35 a14 14 90 0 1 14 14 V60 h-50 V49 a14 14 90 0 1 14 -14" fill="#92c5de" stroke="#92c5de" stroke-width="0"/>
		<path d="M59 60 v11 a14 14 90 0 1 -14 14 H23 a14 14 90 0 1 -14 -14 V60 H50" fill="#d1e5f0" stroke="#d1e5f0" stroke-width="0"/>
		<rect x="9" y="35" width="50" height="50" fill="none" rx="14" stroke="#4393c3" stroke-width="2"/>
		<line x1="9" y1="60" x2="59" y2="60" stroke="#4393c3" stroke-width="1"/>
		<text x="17" y="52.75" fill="#000" font-family="Verdana" font-size="12">Client</text>
	</g>
</g>

<!-- Association Passe -->
<g>
	<line x1="125" y1="60" x2="216" y2="60" stroke="#4393c3" stroke-width="2"/>
	<text x="164" y="77" fill="#b2182b" font-family="Verdana" font-size="12">0,N</text>
	<line x1="296" y1="60" x2="216" y2="60" stroke="#4393c3" stroke-width="2"/>
	<text x="247" y="77" fill="#b2182b" font-family="Verdana" font-size="12">1,1</text>
	<g>
		<path d="M227 35 a14 14 90 0 1 14 14 V60 h-50 V49 a14 14 90 0 1 14 -14" fill="#92c5de" stroke="#92c5de" stroke-width="0"/>
		<path d="M241 60 v11 a14 14 90 0 1 -14 14 H205 a14 14 90 0 1 -14 -14 V60 H50" fill="#d1e5f0" stroke="#d1e5f0" stroke-width="0"/>
		<rect x="191" y="35" width="50" height="50" fill="none" rx="14" stroke="#4393c3" stroke-width="2"/>
		<line x1="191" y1="60" x2="241" y2="60" stroke="#4393c3" stroke-width="1"/>
		<text x="199" y="52.75" fill="#000" font-family="Verdana" font-size="12">Passe</text>
	</g>
</g>

<!-- Association Contient -->
<g>
	<line x1="296" y1="60" x2="384" y2="60" stroke="#4393c3" stroke-width="2"/>
	<text x="324" y="77" fill="#b2182b" font-family="Verdana" font-size="12">0,N</text>
	<line x1="480" y1="60" x2="384" y2="60" stroke="#4393c3" stroke-width="2"/>
	<text x="423" y="77" fill="#b2182b" font-family="Verdana" font-size="12">1,1</text>
	<g>
		<path d="M403 35 a14 14 90 0 1 14 14 V60 h-66 V49 a14 14 90 0 1 14 -14" fill="#92c5de" stroke="#92c5de" stroke-width="0"/>
		<path d="M417 60 v11 a14 14 90 0 1 -14 14 H365 a14 14 90 0 1 -14 -14 V60 H66" fill="#d1e5f0" stroke="#d1e5f0" stroke-width="0"/>
		<rect x="351" y="35" width="66" height="50" fill="none" rx="14" stroke="#4393c3" stroke-width="2"/>
		<line x1="351" y1="60" x2="417" y2="60" stroke="#4393c3" stroke-width="1"/>
		<text x="358" y="52.75" fill="#000" font-family="Verdana" font-size="12">Contient</text>
	</g>
</g>

<!-- Association Possède -->
<g>
	<line x1="480" y1="60" x2="575" y2="60" stroke="#4393c3" stroke-width="2"/>
	<text x="516" y="77" fill="#b2182b" font-family="Verdana" font-size="12">0,N</text>
	<line x1="668" y1="60" x2="575" y2="60" stroke="#4393c3" stroke-width="2"/>
	<text x="612" y="77" fill="#b2182b" font-family="Verdana" font-size="12">0,N</text>
	<g>
		<path d="M593 35 a14 14 90 0 1 14 14 V60 h-64 V49 a14 14 90 0 1 14 -14" fill="#92c5de" stroke="#92c5de" stroke-width="0"/>
		<path d="M607 60 v11 a14 14 90 0 1 -14 14 H557 a14 14 90 0 1 -14 -14 V60 H64" fill="#d1e5f0" stroke="#d1e5f0" stroke-width="0"/>
		<rect x="543" y="35" width="64" height="50" fill="none" rx="14" stroke="#4393c3" stroke-width="2"/>
		<line x1="543" y1="60" x2="607" y2="60" stroke="#4393c3" stroke-width="1"/>
		<text x="550" y="52.75" fill="#000" font-family="Verdana" font-size="12">Possède</text>
	</g>
</g>

<!-- Entity User -->
<g>
	<g>
		<rect x="91" y="9" width="68" height="25" fill="#f4a582" stroke="#f4a582" stroke-width="0" opacity="1"/>
		<rect x="91" y="34" width="68" height="77" fill="#fddbc7" stroke="#fddbc7" stroke-width="0" opacity="1"/>
		<rect x="91" y="9" width="68" height="102" fill="none" stroke="#d6604d" stroke-width="2" opacity="1"/>
		<line x1="91" y1="34" x2="159" y2="34" stroke="#d6604d" stroke-width="1"/>
	</g>
	<text x="111" y="26.75" fill="#000" font-family="Verdana" font-size="12">User</text>
	<text x="96" y="51.8" fill="#000" font-family="Verdana" font-size="12">id</text>
	<line x1="96" y1="54" x2="108" y2="54" stroke="#000" stroke-width="1"/>
	<text x="96" y="68.8" fill="#000" font-family="Verdana" font-size="12">email</text>
	<text x="96" y="85.8" fill="#000" font-family="Verdana" font-size="12">password</text>
	<text x="96" y="102.8" fill="#000" font-family="Verdana" font-size="12">roles</text>
</g>

<!-- Entity Order -->
<g>
	<g>
		<rect x="273" y="35" width="46" height="25" fill="#f4a582" stroke="#f4a582" stroke-width="0" opacity="1"/>
		<rect x="273" y="60" width="46" height="25" fill="#fddbc7" stroke="#fddbc7" stroke-width="0" opacity="1"/>
		<rect x="273" y="35" width="46" height="50" fill="none" stroke="#d6604d" stroke-width="2" opacity="1"/>
		<line x1="273" y1="60" x2="319" y2="60" stroke="#d6604d" stroke-width="1"/>
	</g>
	<text x="279" y="52.75" fill="#000" font-family="Verdana" font-size="12">Order</text>
	<text x="278" y="77.8" fill="#000" font-family="Verdana" font-size="12">id</text>
	<line x1="278" y1="80" x2="290" y2="80" stroke="#000" stroke-width="1"/>
</g>

<!-- Entity Cart -->
<g>
	<g>
		<rect x="449" y="26" width="62" height="25" fill="#f4a582" stroke="#f4a582" stroke-width="0" opacity="1"/>
		<rect x="449" y="51" width="62" height="43" fill="#fddbc7" stroke="#fddbc7" stroke-width="0" opacity="1"/>
		<rect x="449" y="26" width="62" height="68" fill="none" stroke="#d6604d" stroke-width="2" opacity="1"/>
		<line x1="449" y1="51" x2="511" y2="51" stroke="#d6604d" stroke-width="1"/>
	</g>
	<text x="467" y="43.75" fill="#000" font-family="Verdana" font-size="12">Cart</text>
	<text x="454" y="68.8" fill="#000" font-family="Verdana" font-size="12">id</text>
	<line x1="454" y1="71" x2="466" y2="71" stroke="#000" stroke-width="1"/>
	<text x="454" y="85.8" fill="#000" font-family="Verdana" font-size="12">quantity</text>
</g>

<!-- Entity Product -->
<g>
	<g>
		<rect x="639" y="18" width="58" height="25" fill="#f4a582" stroke="#f4a582" stroke-width="0" opacity="1"/>
		<rect x="639" y="43" width="58" height="59" fill="#fddbc7" stroke="#fddbc7" stroke-width="0" opacity="1"/>
		<rect x="639" y="18" width="58" height="84" fill="none" stroke="#d6604d" stroke-width="2" opacity="1"/>
		<line x1="639" y1="43" x2="697" y2="43" stroke="#d6604d" stroke-width="1"/>
	</g>
	<text x="645" y="35.75" fill="#000" font-family="Verdana" font-size="12">Product</text>
	<text x="644" y="60.8" fill="#000" font-family="Verdana" font-size="12">id</text>
	<line x1="644" y1="63" x2="656" y2="63" stroke="#000" stroke-width="1"/>
	<text x="644" y="77.8" fill="#000" font-family="Verdana" font-size="12">ref</text>
	<text x="644" y="94.8" fill="#000" font-family="Verdana" font-size="12">name</text>
</g>
</svg>